<?xml version="1.0" encoding="utf-8"?>
<!-- Generator: Adobe Illustrator 19.2.1, SVG Export Plug-In . SVG Version: 6.00 Build 0)  -->
<svg version="1.1" id="Vrstva_1" xmlns="http://www.w3.org/2000/svg" xmlns:xlink="http://www.w3.org/1999/xlink" x="0px" y="0px"
	 viewBox="0 0 80 40" style="enable-background:new 0 0 80 40;" xml:space="preserve">
<style type="text/css">
	.st0{fill:none;stroke:#424243;stroke-miterlimit:10;}
</style>
<path class="st0" d="M64.3,27.2c-0.8,0.3-1.7,0.4-2.5,0.5c0.9,3.5-0.5,7.1-3.5,8.7c-2,1-4.2,1-6.2,0.1c-1.3,1.3-3,2.1-4.9,2.1
	c-2.6,0-5.1-1.3-6.4-3.6c-1.2,2.6-3.5,4.1-6.4,4.1c-1.9,0-3.6-0.8-4.9-2.1c-2,0.9-4.3,1-6.2-0.1c-3-1.6-4.4-5.2-3.5-8.7
	c-0.8,0-1.7-0.2-2.5-0.5c-4.3-1.5-6.7-5.8-5.4-9.6c0.6-1.6,1.7-2.9,3.2-3.7c0-0.4-0.1-0.8-0.1-1.2C15,8.6,18.3,5,22.4,5
	c1.6,0,3.1,0.6,4.3,1.6c1-3.3,3.7-5.6,7-5.6c3,0,5.6,2,6.7,4.9C41.6,3,44.2,1,47.2,1c3.3,0,6.1,2.4,7,5.7c1.3-1.4,3.1-2.2,5-2.2
	c4.1,0,7.4,3.7,7.4,8.2c0,0.4,0,0.8-0.1,1.2c1.5,0.8,2.6,2.1,3.2,3.7C71,21.4,68.6,25.7,64.3,27.2z"/>
<circle class="st0" cx="35.1" cy="13.9" r="4.3"/>
<circle class="st0" cx="46" cy="13.9" r="4.3"/>
<path class="st0" d="M41.4,22.5c2.5,0,4.9,0,7.4,0c-1,3.3-3.7,5.6-6.8,6.1c-3.9,0.5-7.9-2-9.3-6.2C35.6,22.5,38.5,22.5,41.4,22.5z"
	/>
</svg>
