<?xml version="1.0" encoding="utf-8"?>
<!-- Generator: Adobe Illustrator 19.2.1, SVG Export Plug-In . SVG Version: 6.00 Build 0)  -->
<svg version="1.1" id="Vrstva_1" xmlns="http://www.w3.org/2000/svg" xmlns:xlink="http://www.w3.org/1999/xlink" x="0px" y="0px"
	 viewBox="0 0 80 40" style="enable-background:new 0 0 80 40;" xml:space="preserve">
<style type="text/css">
	.st0{fill:none;stroke:#424243;stroke-miterlimit:10;}
</style>
<path class="st0" d="M48.9,19.1c0,3.4-2.6,4.4-3.3,9.7c-0.4,3-0.2,6.2-0.9,6.3c-0.7,0.1-1.3-2.5-2.4-2.4c-1,0.1-1.4,2.5-2.3,2.5
	c-0.9,0-1.3-2.5-2.2-2.5c-1,0-1.4,2.5-2.1,2.5c-0.8,0-1.2-3.2-1.6-5.5c-1.2-6.9-2.6-7.4-2.9-10.6C30.7,12.9,35.4,4.8,40,4.8
	C44.9,4.8,48.9,11.2,48.9,19.1z"/>
<ellipse class="st0" cx="36.8" cy="13.8" rx="1.3" ry="2.2"/>
<ellipse class="st0" cx="42.5" cy="13.8" rx="1.5" ry="2.2"/>
</svg>
