<?xml version="1.0" encoding="utf-8"?>
<!-- Generator: Adobe Illustrator 19.2.1, SVG Export Plug-In . SVG Version: 6.00 Build 0)  -->
<svg version="1.1" id="Vrstva_1" xmlns="http://www.w3.org/2000/svg" xmlns:xlink="http://www.w3.org/1999/xlink" x="0px" y="0px"
	 viewBox="0 0 80 40" style="enable-background:new 0 0 80 40;" xml:space="preserve">
<style type="text/css">
	.st0{fill:none;stroke:#424243;stroke-miterlimit:10;}
</style>
<polygon class="st0" points="39.8,19.2 37.7,22.3 37.2,22.9 9.3,36.3 7.1,31.7 38.6,16.6 35.2,20 "/>
<path class="st0" d="M40.7,21.9l-3.5,1l0.4-0.6C38.7,21.9,39.7,22.3,40.7,21.9z"/>
<path class="st0" d="M72.5,26.1c-3.3,3.6-9.1,3.8-12.6,0.4c0,0,0,0,0,0l3.3-3.5c1.6,1.2,4.1,1,5.6-0.3c1.5-1.4,1.4-3.5-0.2-4.8
	c-0.7-0.5-1.5-0.8-2.4-0.9H48.8l-5.5-1.4l5.5-1.9l-2.9-0.6l2.9-1.7l0.4-0.2H66v-0.1c2.3,0,4.4,0.9,6.1,2.4
	C75.6,16.8,75.8,22.5,72.5,26.1z"/>
<polygon class="st0" points="49.2,11.1 48.8,11.4 48.8,11.1 "/>
<line class="st0" x1="25.2" y1="9.2" x2="30.1" y2="12.1"/>
<line class="st0" x1="42.8" y1="4.1" x2="42.2" y2="9.7"/>
<line class="st0" x1="39" y1="26.1" x2="38.4" y2="28.9"/>
<line class="st0" x1="49" y1="24.7" x2="53.1" y2="26.4"/>
<line class="st0" x1="35.2" y1="7.7" x2="35.9" y2="8.8"/>
<line class="st0" x1="44.6" y1="24.3" x2="44.3" y2="22.9"/>
</svg>
