<?xml version="1.0" encoding="utf-8"?>
<!-- Generator: Adobe Illustrator 19.2.1, SVG Export Plug-In . SVG Version: 6.00 Build 0)  -->
<svg version="1.1" id="Vrstva_1" xmlns="http://www.w3.org/2000/svg" xmlns:xlink="http://www.w3.org/1999/xlink" x="0px" y="0px"
	 viewBox="0 0 80 40" style="enable-background:new 0 0 80 40;" xml:space="preserve">
<style type="text/css">
	.st0{fill:none;stroke:#424243;stroke-miterlimit:10;}
</style>
<path class="st0" d="M63.2,9.1c0,5.3,0,10.5,0,15.8c-15.5-0.1-30.9-0.1-46.4-0.2c0-5.2,0-10.4,0-15.6l5.8,5.8
	c1.9-1.9,3.9-3.9,5.8-5.8c1.9,1.9,3.9,3.9,5.8,5.8c1.9-1.9,3.9-3.9,5.8-5.8l5.8,5.8c1.9-1.9,3.9-3.9,5.8-5.8
	c1.9,1.9,3.9,3.9,5.8,5.8C59.3,13,61.2,11.1,63.2,9.1z"/>
<line class="st0" x1="8.2" y1="6" x2="10.8" y2="8"/>
<line class="st0" x1="9.2" y1="27.8" x2="12.3" y2="26.3"/>
<line class="st0" x1="65.2" y1="28.2" x2="68.2" y2="30.5"/>
<line class="st0" x1="65.8" y1="7" x2="69.2" y2="4.8"/>
<line class="st0" x1="38.1" y1="29.3" x2="38" y2="31.2"/>
<line class="st0" x1="67.3" y1="17.5" x2="69" y2="17.6"/>
<line class="st0" x1="11.8" y1="15.9" x2="10.7" y2="15.8"/>
<line class="st0" x1="32" y1="7" x2="30.7" y2="4.2"/>
<line class="st0" x1="42.6" y1="5.9" x2="42.8" y2="5.2"/>
<line class="st0" x1="51.1" y1="5.6" x2="53.5" y2="3.5"/>
<line class="st0" x1="28.2" y1="29.8" x2="26.5" y2="32.6"/>
<line class="st0" x1="49.3" y1="29.3" x2="51.1" y2="32.5"/>
</svg>
