<?xml version="1.0" encoding="utf-8"?>
<!-- Generator: Adobe Illustrator 19.2.1, SVG Export Plug-In . SVG Version: 6.00 Build 0)  -->
<svg version="1.1" id="Vrstva_1" xmlns="http://www.w3.org/2000/svg" xmlns:xlink="http://www.w3.org/1999/xlink" x="0px" y="0px"
	 viewBox="0 0 50 50" style="enable-background:new 0 0 50 50;" xml:space="preserve">
<style type="text/css">
	.st0{fill:#FFFFFF;stroke:#424243;stroke-miterlimit:10;}
	.st1{fill:#424243;}
</style>
<path class="st0" d="M3.8,9.2"/>
<path class="st0" d="M9.4,10.9c0.9,6.7,1.3,12.1,1.5,16.2c0.3,5.5,0.1,6.8-0.2,7.9c-1.2,5.4-4.4,8.1-2.8,10c0.7,0.8,2.3,1.5,6.5,1.2
	c3.2,0,6.5,0,9.8,0c5.1-0.1,10.2-0.2,15-0.4c0.9-0.3,1.9-0.7,2.9-1c1.3-0.5,2.6-1,3.8-1.4c0.5-0.6,0.4-1,0.4-1.2
	c-0.3-0.9-2.1-1.5-4.5-1.2c-5.4-0.7-10.9-1.4-16.3-2.1c-0.9-0.7-1.9-1.5-2.8-2.2C22,31.8,21.4,27,20.9,22c-0.4-3.8-0.7-7.5-1-11.1"
	/>
<path class="st0" d="M14.1,36.4"/>
<g>
	<g>
		<path class="st1" d="M39.2,44.7c0.1-0.1,0.1-0.2,0.2-0.3c0.4-0.7-0.6-1.3-1.1-0.6c-0.1,0.1-0.1,0.2-0.2,0.3
			C37.7,44.8,38.8,45.4,39.2,44.7L39.2,44.7z"/>
	</g>
</g>
<g>
	<g>
		<path class="st1" d="M39.6,44.3c0.6,0.1,1.3-0.1,1.5-0.7c0.3-0.7-0.8-1.4-1.1-0.6c0,0.1,0,0.1-0.1,0.1
			C39.1,42.9,38.8,44.2,39.6,44.3L39.6,44.3z"/>
	</g>
</g>
<g>
	<g>
		<path class="st1" d="M41.3,44.1c0.6-0.1,1-0.6,1.2-1.1c0.3-0.8-0.9-1.1-1.2-0.3c-0.1,0.2-0.2,0.2-0.4,0.3
			C40.1,43.1,40.5,44.3,41.3,44.1L41.3,44.1z"/>
	</g>
</g>
<g>
	<g>
		<path class="st1" d="M42.8,43.3c0.6-0.1,1.1-0.5,1.4-1.1c0.4-0.7-0.7-1.3-1.1-0.6c-0.2,0.3-0.4,0.4-0.7,0.5
			C41.7,42.2,42,43.4,42.8,43.3L42.8,43.3z"/>
	</g>
</g>
<g>
	<g>
		<path class="st1" d="M44.2,42.7c0.4-0.1,0.8-0.3,1-0.7c0.4-0.7-0.7-1.3-1.1-0.6c-0.1,0.1-0.1,0.1-0.3,0.2
			C43,41.6,43.4,42.8,44.2,42.7L44.2,42.7z"/>
	</g>
</g>
<g>
	<g>
		<path class="st1" d="M45.2,42.7c0.6-0.2,0.9-0.8,0.6-1.4c-0.3-0.6-1-0.5-1.6-0.7c-0.8-0.2-1.1,1-0.3,1.2C44,42,44.2,42,44.4,42
			c0.1,0,0.2,0,0.2,0c0.2,0.1,0.3-0.1,0.2-0.5C44.1,41.8,44.4,43,45.2,42.7L45.2,42.7z"/>
	</g>
</g>
<g>
	<g>
		<path class="st1" d="M38.2,44.5c0.8,0,0.8-1.3,0-1.3C37.4,43.2,37.4,44.5,38.2,44.5L38.2,44.5z"/>
	</g>
</g>
<g>
	<g>
		<path class="st1" d="M37.8,44.5c0.2,0.1,0.4,0.1,0.7,0c0.8-0.3,0.4-1.5-0.3-1.2c0,0,0,0,0,0C37.3,43.1,37,44.3,37.8,44.5
			L37.8,44.5z"/>
	</g>
</g>
<g>
	<g>
		<path class="st1" d="M39.5,43.9c0.1,0,0.2-0.1,0.3-0.1c0.8-0.2,0.4-1.4-0.3-1.2c-0.1,0-0.2,0.1-0.3,0.1
			C38.4,42.9,38.7,44.1,39.5,43.9L39.5,43.9z"/>
	</g>
</g>
<g>
	<g>
		<path class="st1" d="M40.6,43.3C40.6,43.3,40.6,43.3,40.6,43.3c0.9,0,0.9-1.3,0.1-1.3c0,0-0.1,0-0.1,0
			C39.8,42,39.8,43.3,40.6,43.3L40.6,43.3z"/>
	</g>
</g>
<g>
	<g>
		<path class="st1" d="M42,42.8c0.8,0,0.8-1.3,0-1.3C41.2,41.5,41.2,42.8,42,42.8L42,42.8z"/>
	</g>
</g>
<g>
	<g>
		<path class="st1" d="M41.8,41.5C41.7,41.5,41.7,41.5,41.8,41.5c-0.9,0-0.9,1.3-0.1,1.3c0,0,0.1,0,0.1,0
			C42.6,42.7,42.6,41.5,41.8,41.5L41.8,41.5z"/>
	</g>
</g>
<g>
	<g>
		<path class="st1" d="M43.3,42.3c0.8,0,0.8-1.3,0-1.3C42.4,41,42.4,42.3,43.3,42.3L43.3,42.3z"/>
	</g>
</g>
<g>
	<g>
		<path class="st1" d="M42.4,42.9c0.8,0,0.8-1.3,0-1.3C41.6,41.6,41.6,42.9,42.4,42.9L42.4,42.9z"/>
	</g>
</g>
<g>
	<g>
		<path class="st1" d="M12.4,38.2c0.4,0.4,0.9,0.6,1.4,0.8c0.8,0.2,1.1-1,0.3-1.2c-0.3-0.1-0.6-0.2-0.9-0.4
			C12.7,36.8,11.8,37.7,12.4,38.2L12.4,38.2z"/>
	</g>
</g>
</svg>
