<?xml version="1.0" encoding="utf-8"?>
<!-- Generator: Adobe Illustrator 19.2.1, SVG Export Plug-In . SVG Version: 6.00 Build 0)  -->
<svg version="1.1" id="Vrstva_1" xmlns="http://www.w3.org/2000/svg" xmlns:xlink="http://www.w3.org/1999/xlink" x="0px" y="0px"
	 viewBox="0 0 50 50" style="enable-background:new 0 0 50 50;" xml:space="preserve">
<style type="text/css">
	.st0{fill:#FFFFFF;stroke:#424243;stroke-miterlimit:10;}
</style>
<path class="st0" d="M5,14.3c0.5,4.4,0.8,9.3,0.8,14.6c0,5.7-0.4,10.8-0.9,15.4c3.7,0,7.3,0.1,11,0.1c0.5-3.8,1.4-8.1,2.8-12.9
	c1.3-4.3,2.8-8.1,4.3-11.3c1.4,3.3,2.9,7.2,4.1,11.7c1.3,4.6,2,8.9,2.4,12.6c3.8,0,7.6-0.1,11.3-0.1c-0.3-4.7-0.3-10,0-15.7
	c0.3-5.2,0.9-10,1.6-14.3C30,14.3,17.5,14.3,5,14.3z"/>
<ellipse class="st0" cx="23.3" cy="9.5" rx="1" ry="1.1"/>
<path class="st0" d="M4.8,21.2"/>
<path class="st0" d="M5.5,14.3"/>
<path class="st0" d="M4.8,2.7"/>
<line class="st0" x1="8.3" y1="44.3" x2="8" y2="48.9"/>
<line class="st0" x1="12.5" y1="44.3" x2="12.2" y2="48.8"/>
<line class="st0" x1="32.8" y1="44.8" x2="33.5" y2="48.8"/>
<line class="st0" x1="36.6" y1="44.4" x2="37.7" y2="48.8"/>
<path class="st0" d="M42.8,2.8c-1,2.4-1.9,5.5-1.6,6.7c0.3,0.8,0.4,1.3,1.3,4.8c0,0-0.4,0.1-0.4,0.1"/>
<path class="st0" d="M4.6,2.7c1,2.4,1.9,5.5,1.6,6.7c-0.3,0.8-0.4,1.3-1.3,4.8c0,0,0.4,0.1,0.4,0.1"/>
</svg>
